<svg width="418" height="233" viewBox="0 0 418 233" fill="none" xmlns="http://www.w3.org/2000/svg">
<path d="M0 0.598056C0 50.8762 0 101.154 0 151.432C10.2056 151.174 26.4144 151.088 46.2253 152.724C92.6221 156.426 124.268 166.24 150.339 173.472C234.3 196.717 298.449 214.538 367.144 198.095C389.699 192.757 407.194 185.008 418 179.585C418 119.922 418 60.2602 418 0.511963C278.724 0.598056 139.362 0.598056 0 0.598056Z" fill="#A2CE67"/>
<path d="M178.856 1.51685C191.978 2.40316 202.572 4.10762 210.227 5.60755C214.533 6.49386 219.932 7.58472 226.288 10.5164C233.738 13.9935 238.789 15.5943 240.635 20.844C242.412 25.821 240.026 30.1518 230.936 48.4235C222.871 64.7182 221.299 70.7179 223.213 76.5812C223.554 77.6039 224.99 81.6946 228.544 84.6944C241.598 95.5348 272.559 81.5582 290.671 69.9679C311.79 56.4686 324.98 40.0376 327.373 42.083C327.851 42.492 328.193 43.7192 324.365 51.1507C312.951 73.2405 301.743 77.6721 296.48 94.3757C295.25 98.2619 292.037 108.42 296.48 112.443C300.444 116.056 308.372 112.784 318.624 109.102C346.783 98.9437 360.931 93.8985 371.114 95.603C389.431 98.671 401.528 115.375 406.176 121.852C413.216 131.601 416.428 141.078 418 147.214C418 98.671 418 50.128 418 1.58502C338.308 1.51685 258.548 1.51685 178.856 1.51685Z" fill="#57AA48"/>
<circle cx="370.272" cy="102.5" r="23.613" fill="url(#paint0_linear_253_518)"/>
<path d="M223.435 122.667H211.216V122.361C211.698 121.968 212.18 121.618 212.705 121.268H218.486C220.15 121.662 221.814 122.143 223.435 122.667Z" fill="#2B713A"/>
<path d="M225.449 122.973H210.866V122.23L210.997 122.142C211.479 121.793 211.961 121.399 212.486 121.049L212.574 121.006H218.53C220.194 121.355 221.902 121.836 223.566 122.361L225.449 122.973ZM211.785 122.317H221.245C220.281 122.055 219.362 121.793 218.398 121.618H212.749C212.442 121.88 212.092 122.099 211.785 122.317Z" fill="white"/>
<path d="M232.105 126.471V126.602H207.011V126.471C207.756 125.553 208.544 124.678 209.42 123.891H226.762L232.105 126.471Z" fill="#2B713A"/>
<path d="M232.455 126.908H206.705V126.34L206.792 126.252C207.537 125.334 208.369 124.46 209.245 123.629L209.332 123.542H226.849L232.455 126.252V126.908ZM207.624 126.252H230.922L226.674 124.197H209.551C208.894 124.853 208.237 125.553 207.624 126.252Z" fill="white"/>
<path d="M238.587 130.756H204.253C204.778 129.75 205.392 128.745 206.048 127.827H234.426C235.74 128.657 237.054 129.576 238.28 130.494C238.368 130.581 238.455 130.669 238.587 130.756Z" fill="#2B713A"/>
<path d="M239.506 131.106H203.683L203.946 130.625C204.471 129.619 205.084 128.614 205.741 127.652L205.829 127.521H234.47L234.557 127.564C235.915 128.439 237.229 129.313 238.455 130.275C238.586 130.363 238.674 130.45 238.805 130.537L239.506 131.106ZM204.778 130.45H237.623C236.572 129.663 235.477 128.876 234.294 128.176H206.179C205.654 128.876 205.216 129.663 204.778 130.45Z" fill="white"/>
<path d="M203.639 131.98H240.075L243.272 134.91H202.501L203.639 131.98Z" fill="#2B713A"/>
<path d="M244.104 135.259H202.019L203.377 131.674H240.163L244.104 135.259ZM202.983 134.604H242.44L239.944 132.33H203.859L202.983 134.604Z" fill="white"/>
<path d="M246.995 139.063H201.582C201.713 138.058 201.932 137.096 202.151 136.134H244.455C245.331 137.096 246.163 138.058 246.995 139.063Z" fill="#2B713A"/>
<path d="M247.651 139.413H201.231L201.275 139.019C201.406 138.014 201.625 137.008 201.844 136.046L201.888 135.784H244.586L244.673 135.871C245.549 136.79 246.425 137.795 247.213 138.801L247.651 139.413ZM201.975 138.757H246.294C245.637 137.97 244.98 137.227 244.323 136.484H202.413C202.238 137.227 202.107 137.97 201.975 138.757Z" fill="white"/>
<path d="M249.973 143.261H201.363C201.363 143.042 201.363 142.78 201.363 142.561C201.363 141.818 201.406 141.075 201.45 140.331H247.915L249.973 143.261Z" fill="#2B713A"/>
<path d="M250.586 143.567H201.056V143.261C201.056 143.042 201.056 142.78 201.056 142.561C201.056 141.774 201.099 140.987 201.143 140.288L201.187 139.981H248.133L250.586 143.567ZM201.669 142.911H249.316L247.739 140.637H201.756C201.713 141.249 201.669 141.862 201.669 142.561C201.669 142.649 201.669 142.78 201.669 142.911Z" fill="white"/>
<path d="M201.407 144.092H250.499L252.163 147.021H201.757L201.407 144.092Z" fill="#2B713A"/>
<path d="M252.732 147.327H201.45L201.012 143.742H250.717L252.732 147.327ZM202.063 146.671H251.593L250.279 144.398H201.756L202.063 146.671Z" fill="white"/>
<path d="M254.177 151.219H202.852C202.502 150.257 202.239 149.295 201.976 148.289H252.82L254.177 151.219Z" fill="#2B713A"/>
<path d="M254.658 151.568H202.632L202.545 151.35C202.194 150.388 201.888 149.382 201.669 148.376L201.581 147.983H253.038L254.658 151.568ZM203.114 150.912H253.651L252.6 148.639H202.413C202.632 149.382 202.851 150.169 203.114 150.912Z" fill="white"/>
<path d="M255.666 155.459H204.866C204.296 154.498 203.815 153.536 203.377 152.53H254.658C255.053 153.492 255.359 154.454 255.666 155.459Z" fill="#2B713A"/>
<path d="M256.147 155.765H204.646L204.559 155.591C203.99 154.629 203.508 153.623 203.07 152.617L202.895 152.18H254.921L255.009 152.399C255.359 153.317 255.709 154.323 256.016 155.372L256.147 155.765ZM205.041 155.11H255.227C254.965 154.323 254.702 153.579 254.439 152.836H203.858C204.209 153.623 204.603 154.366 205.041 155.11Z" fill="white"/>
<path d="M256.717 159.307H207.581C206.793 158.389 206.049 157.383 205.392 156.378H255.929L256.717 159.307Z" fill="#2B713A"/>
<path d="M257.112 159.613H207.45L207.363 159.482C206.531 158.564 205.786 157.558 205.129 156.509L204.823 155.984H256.236L257.112 159.613ZM207.757 158.957H256.28L255.71 156.684H206.005C206.531 157.471 207.144 158.258 207.757 158.957Z" fill="white"/>
<path d="M257.462 163.505H213.888C212.705 162.893 211.523 162.368 210.253 161.931C209.728 161.493 209.246 161.056 208.808 160.575H256.98L257.462 163.505Z" fill="#2B713A"/>
<path d="M257.856 163.811H213.8L213.712 163.767C212.574 163.155 211.347 162.674 210.121 162.237H210.077L210.034 162.193C209.508 161.712 209.026 161.275 208.545 160.794L207.975 160.225H257.243L257.856 163.811ZM213.975 163.155H257.067L256.673 160.881H209.596C209.858 161.144 210.121 161.362 210.428 161.624C211.61 162.062 212.836 162.586 213.975 163.155Z" fill="white"/>
<path d="M257.855 167.265H219.624C219.492 167.177 219.361 167.046 219.23 166.959C218.047 165.997 216.777 165.122 215.463 164.335H257.592C257.68 165.297 257.767 166.303 257.855 167.265Z" fill="#2B713A"/>
<path d="M258.206 167.614H219.493L219.405 167.527C219.274 167.439 219.142 167.308 219.011 167.221C217.829 166.259 216.559 165.384 215.289 164.641L214.238 164.029H257.855L257.899 164.335C258.031 165.297 258.118 166.303 258.162 167.265L258.206 167.614ZM219.712 166.958H257.461C257.417 166.215 257.33 165.428 257.242 164.685H216.559C217.522 165.297 218.485 165.997 219.361 166.696C219.537 166.784 219.624 166.871 219.712 166.958Z" fill="white"/>
<path d="M257.943 170.369C257.943 170.675 257.943 171.025 257.943 171.331H223.609C222.777 170.282 221.857 169.32 220.85 168.402H257.899C257.899 169.057 257.943 169.713 257.943 170.369Z" fill="#2B713A"/>
<path d="M258.25 171.637H223.478L223.39 171.506C222.558 170.457 221.639 169.495 220.675 168.62L220.062 168.052H258.25V168.358C258.293 169.014 258.293 169.67 258.293 170.325C258.293 170.631 258.293 170.981 258.293 171.287L258.25 171.637ZM223.784 170.981H257.636C257.636 170.763 257.636 170.544 257.636 170.325C257.636 169.801 257.636 169.232 257.593 168.708H221.682C222.427 169.451 223.084 170.194 223.784 170.981Z" fill="white"/>
<path d="M257.855 172.73L257.636 175.66H226.587C226.018 174.654 225.405 173.692 224.704 172.73H257.855Z" fill="#2B713A"/>
<path d="M257.943 176.009H226.368L226.281 175.834C225.711 174.829 225.098 173.867 224.398 172.949L224.003 172.424H258.162L257.943 176.009ZM226.762 175.354H257.33L257.505 173.08H225.317C225.843 173.779 226.324 174.567 226.762 175.354Z" fill="white"/>
<path d="M257.549 176.665C257.418 177.671 257.286 178.633 257.067 179.595H228.427C228.076 178.72 227.726 177.89 227.332 177.059C227.244 176.928 227.2 176.796 227.113 176.665H257.549V176.665Z" fill="#2B713A"/>
<path d="M257.373 179.944H228.207L228.12 179.726C227.813 178.895 227.419 178.064 227.025 177.234C226.981 177.102 226.893 176.971 226.85 176.84L226.587 176.359H257.899L257.855 176.709C257.724 177.715 257.592 178.676 257.373 179.638V179.944ZM228.645 179.289H256.804C256.935 178.545 257.067 177.758 257.154 177.015H227.638C228.032 177.758 228.339 178.502 228.645 179.289Z" fill="white"/>
<path d="M256.891 180.6C256.672 181.606 256.453 182.568 256.19 183.53H229.652C229.433 182.524 229.126 181.562 228.82 180.6H256.891Z" fill="#2B713A"/>
<path d="M256.41 183.879H229.346L229.302 183.617C229.083 182.612 228.776 181.65 228.47 180.731L228.338 180.294H257.286L257.198 180.688C256.979 181.737 256.76 182.699 256.497 183.617L256.41 183.879ZM229.915 183.224H255.928C256.147 182.48 256.322 181.737 256.497 180.95H229.258C229.477 181.693 229.696 182.437 229.915 183.224Z" fill="white"/>
<path d="M255.752 185.016C255.446 186.022 255.096 186.984 254.745 187.946H230.309C230.221 186.94 230.09 185.978 229.915 185.016H255.752Z" fill="#2B713A"/>
<path d="M254.965 188.295H230.003L229.959 187.989C229.871 187.028 229.74 186.022 229.565 185.104L229.477 184.71H256.147L256.016 185.147C255.709 186.153 255.359 187.159 255.009 188.121L254.965 188.295ZM230.616 187.64H254.527C254.79 186.896 255.052 186.153 255.315 185.366H230.353C230.441 186.109 230.572 186.853 230.616 187.64Z" fill="white"/>
<path d="M254.308 189.083C253.914 190.088 253.476 191.05 252.995 192.012H230.354C230.397 191.487 230.397 190.963 230.397 190.394C230.397 189.957 230.397 189.52 230.354 189.083H254.308Z" fill="#2B713A"/>
<path d="M253.257 192.318H230.047V191.968C230.091 191.444 230.091 190.963 230.091 190.394C230.091 189.913 230.091 189.476 230.047 189.082V188.733H254.79L254.615 189.17C254.221 190.176 253.783 191.181 253.301 192.143L253.257 192.318ZM230.704 191.662H252.82C253.17 190.919 253.52 190.176 253.827 189.389H230.748C230.748 189.695 230.748 190.044 230.748 190.394C230.748 190.831 230.748 191.269 230.704 191.662Z" fill="white"/>
<path d="M252.601 192.93C252.119 193.936 251.55 194.898 250.98 195.86H229.916C230.091 194.898 230.223 193.936 230.31 192.93H252.601Z" fill="#2B713A"/>
<path d="M251.155 196.166H229.521L229.609 195.772C229.784 194.81 229.915 193.805 230.003 192.886L230.047 192.58H253.126L252.907 193.061C252.381 194.067 251.856 195.073 251.286 195.991L251.155 196.166ZM230.31 195.51H250.761C251.199 194.766 251.593 194.023 252.031 193.236H230.616C230.572 193.979 230.441 194.766 230.31 195.51Z" fill="white"/>
<path d="M250.06 197.302C249.403 198.308 248.746 199.27 248.045 200.232H228.776C229.127 199.27 229.389 198.308 229.608 197.302H250.06Z" fill="#2B713A"/>
<path d="M248.22 200.582H228.338L228.47 200.144C228.82 199.182 229.083 198.221 229.302 197.259L229.346 196.996H250.629L250.322 197.521C249.709 198.527 249.009 199.489 248.308 200.45L248.22 200.582ZM229.214 199.926H247.87C248.439 199.182 248.965 198.439 249.447 197.652H229.871C229.696 198.395 229.477 199.182 229.214 199.926Z" fill="white"/>
<path d="M247.301 201.281C246.513 202.287 245.681 203.249 244.805 204.211H227.069C227.551 203.249 227.989 202.287 228.383 201.281H247.301Z" fill="#2B713A"/>
<path d="M244.937 204.517H226.543L226.806 204.036C227.288 203.118 227.726 202.156 228.12 201.15L228.208 200.931H247.958L247.564 201.456C246.776 202.462 245.944 203.467 245.068 204.386L244.937 204.517ZM227.638 203.861H244.674C245.331 203.118 245.988 202.374 246.644 201.587H228.689C228.339 202.374 227.989 203.161 227.638 203.861Z" fill="white"/>
<path d="M243.842 205.216C242.879 206.222 241.828 207.228 240.776 208.146H224.661C225.361 207.228 225.974 206.222 226.544 205.216H243.842Z" fill="#2B713A"/>
<path d="M240.908 208.452H224.003L224.398 207.927C225.098 206.965 225.711 206.003 226.281 205.041L226.368 204.866H244.63L244.104 205.435C243.141 206.44 242.09 207.446 240.995 208.408L240.908 208.452ZM225.273 207.796H240.645C241.477 207.053 242.309 206.309 243.053 205.522H226.719C226.281 206.309 225.799 207.053 225.273 207.796Z" fill="white"/>
<path d="M239.025 209.589C237.712 210.638 236.354 211.6 234.953 212.518H220.764C221.727 211.6 222.691 210.638 223.523 209.589H239.025Z" fill="#2B713A"/>
<path d="M235.04 212.868H219.887L220.501 212.299C221.464 211.381 222.427 210.419 223.26 209.414L223.347 209.282H239.945L239.2 209.851C237.886 210.9 236.529 211.906 235.127 212.78L235.04 212.868ZM221.595 212.212H234.865C235.959 211.512 237.054 210.725 238.062 209.938H223.654C223.041 210.725 222.34 211.469 221.595 212.212Z" fill="white"/>
<path d="M233.244 213.567C231.405 214.66 229.478 215.666 227.464 216.497H215.333C216.822 215.622 218.223 214.66 219.537 213.567H233.244Z" fill="#2B713A"/>
<path d="M227.55 216.847H214.15L215.201 216.234C216.646 215.404 218.047 214.442 219.361 213.349L219.449 213.261H234.47L233.462 213.873C231.579 214.966 229.652 215.972 227.638 216.803L227.55 216.847ZM216.514 216.191H227.375C228.952 215.535 230.484 214.748 231.973 213.917H219.624C218.66 214.748 217.609 215.491 216.514 216.191Z" fill="white"/>
<path d="M213.712 198.046C213.712 208.627 206.793 217.634 197.246 220.782C184.196 217.896 172.985 210.026 165.802 199.27C160.46 191.225 157.307 181.518 157.307 171.156C157.307 143.086 180.079 120.35 208.194 120.35C194.531 123.585 184.371 135.828 184.371 150.431C184.371 160.488 189.188 169.451 196.633 175.091C199.173 177.015 202.019 178.589 205.085 179.638C210.384 184.054 213.712 190.657 213.712 198.046Z" fill="#2B713A"/>
<path d="M197.246 221.131H197.158C184.152 218.289 172.941 210.594 165.54 199.489C159.934 191.05 157 181.256 157 171.156C157 142.955 179.948 120 208.194 120H210.997L208.282 120.656C194.399 123.935 184.721 136.178 184.721 150.431C184.721 160.094 189.144 168.97 196.852 174.829C199.392 176.753 202.238 178.283 205.216 179.332L205.304 179.376C210.865 184.011 214.019 190.788 214.019 198.002C214.019 208.496 207.318 217.765 197.29 221.044L197.246 221.131ZM205.566 120.743C178.94 122.099 157.657 144.179 157.657 171.156C157.657 181.125 160.591 190.788 166.109 199.095C173.379 210.026 184.458 217.634 197.246 220.476C206.924 217.24 213.405 208.277 213.405 198.089C213.405 191.094 210.34 184.492 204.953 179.988C201.888 178.895 199.041 177.365 196.458 175.397C188.575 169.407 184.064 160.356 184.064 150.475C184.064 136.79 192.779 124.897 205.566 120.743Z" fill="white"/>
<path d="M224.792 217.59C220.238 219.251 215.377 220.257 210.297 220.519H204.341V220.301C207.538 219.863 210.559 218.945 213.362 217.59H224.792Z" fill="#2B713A"/>
<path d="M204.341 220.825H203.99V219.995L204.253 219.951C207.363 219.514 210.384 218.639 213.187 217.24L213.275 217.196H226.675L224.924 217.852C220.238 219.557 215.333 220.563 210.34 220.782L204.341 220.825ZM206.837 220.169H210.297C214.545 219.951 218.749 219.164 222.821 217.896H213.45C211.304 218.901 209.114 219.689 206.837 220.169Z" fill="white"/>
<path d="M208.982 158.782C211.618 158.782 213.755 155.905 213.755 152.355C213.755 148.805 211.618 145.928 208.982 145.928C206.346 145.928 204.208 148.805 204.208 152.355C204.208 155.905 206.346 158.782 208.982 158.782Z" fill="#2B713A"/>
<path d="M208.982 159.132C206.18 159.132 203.859 156.115 203.859 152.355C203.859 148.595 206.136 145.578 208.982 145.578C211.829 145.578 214.106 148.595 214.106 152.355C214.106 156.115 211.829 159.132 208.982 159.132ZM208.982 146.234C206.53 146.234 204.516 148.988 204.516 152.355C204.516 155.722 206.53 158.476 208.982 158.476C211.435 158.476 213.449 155.722 213.449 152.355C213.449 148.988 211.479 146.234 208.982 146.234Z" fill="white"/>
<path d="M228.076 146.015C226.675 146.19 221.814 146.977 217.828 151.262C214.5 154.804 213.58 158.87 213.274 161.231C211.873 161.318 210.471 161.406 209.026 161.406C207.712 161.406 206.442 161.362 205.172 161.275C204.647 153.142 198.472 146.671 190.72 145.928C190.72 146.103 190.72 146.321 190.72 146.496C190.72 154.716 196.501 161.581 204.077 162.849C205.391 167.658 206.092 172.73 206.092 177.977C206.092 185.104 204.778 191.968 202.413 198.264H215.201C213.493 192.974 211.61 185.016 212.179 175.266C212.442 170.5 213.23 166.303 214.15 162.805C216.515 162.412 222.383 160.925 225.842 155.285C228.076 151.481 228.12 147.677 228.076 146.015Z" fill="#2B713A"/>
<path d="M215.595 198.57H201.888L202.063 198.133C204.515 191.706 205.741 184.885 205.741 177.977C205.741 172.949 205.085 167.964 203.815 163.155C196.019 161.756 190.37 154.76 190.37 146.54C190.37 146.365 190.37 146.147 190.37 145.972V145.622L190.72 145.666C198.603 146.409 204.778 152.836 205.435 161.012C206.617 161.1 207.844 161.144 208.982 161.144C210.252 161.144 211.566 161.1 212.924 161.012C213.274 158.302 214.369 154.498 217.522 151.131C221.244 147.152 225.667 146.059 227.988 145.797L228.339 145.753V146.103C228.426 148.464 228.12 152.049 225.974 155.503C222.602 161.056 216.821 162.674 214.281 163.155C213.23 167.177 212.617 171.287 212.354 175.354C211.916 183.049 212.967 190.744 215.376 198.221L215.595 198.57ZM202.851 197.915H214.719C212.354 190.525 211.391 182.874 211.785 175.222C212.004 171.025 212.705 166.784 213.756 162.674L213.799 162.455L214.018 162.411C216.339 162.018 222.12 160.531 225.448 155.066C227.375 151.874 227.769 148.639 227.726 146.365C225.405 146.715 221.419 147.808 218.047 151.481C214.938 154.847 213.887 158.651 213.58 161.275L213.537 161.537H213.274C211.785 161.624 210.384 161.712 208.982 161.712C207.712 161.712 206.398 161.668 205.085 161.581H204.778V161.275C204.253 153.405 198.472 147.152 190.983 146.278C190.983 146.365 190.983 146.409 190.983 146.496C190.983 154.498 196.501 161.231 204.077 162.499L204.296 162.543L204.34 162.761C205.698 167.702 206.355 172.818 206.355 177.977C206.398 184.798 205.172 191.531 202.851 197.915Z" fill="white"/>
<path d="M162 210.889L167.387 205.861L166.029 212.551L165.723 212.026L172.379 211.152L166.993 216.18L166.029 215.174L169.095 212.288L168.613 212.857L164.497 213.425L165.285 209.315L165.942 209.053L162.92 211.895L162 210.889Z" fill="#2B713A"/>
<path d="M169.839 214.037C170.146 213.644 170.496 213.338 170.934 213.119C171.372 212.9 171.81 212.769 172.248 212.682C172.686 212.594 173.167 212.682 173.649 212.769C174.131 212.9 174.525 213.119 174.919 213.425C175.313 213.731 175.62 214.081 175.839 214.518C176.058 214.955 176.189 215.393 176.233 215.874C176.277 216.355 176.233 216.792 176.101 217.273C175.97 217.71 175.751 218.147 175.444 218.541C175.138 218.934 174.744 219.24 174.35 219.459C173.956 219.678 173.474 219.809 172.992 219.852C172.51 219.896 172.072 219.852 171.591 219.721C171.153 219.59 170.715 219.371 170.321 219.065C169.927 218.759 169.62 218.366 169.401 217.972C169.182 217.535 169.051 217.098 169.007 216.661C168.963 216.18 169.007 215.742 169.138 215.262C169.313 214.824 169.532 214.431 169.839 214.037ZM170.978 214.955C170.759 215.218 170.627 215.48 170.54 215.742C170.452 216.005 170.408 216.311 170.452 216.617C170.496 216.923 170.54 217.185 170.715 217.448C170.846 217.71 171.021 217.929 171.284 218.147C171.503 218.322 171.766 218.453 172.029 218.541C172.291 218.628 172.598 218.628 172.861 218.584C173.123 218.541 173.43 218.453 173.649 218.322C173.912 218.191 174.131 217.972 174.35 217.754C174.569 217.491 174.7 217.229 174.788 216.967C174.875 216.704 174.919 216.398 174.875 216.092C174.875 215.786 174.788 215.524 174.656 215.262C174.525 214.999 174.35 214.781 174.087 214.606C173.868 214.431 173.605 214.3 173.299 214.212C173.036 214.125 172.729 214.125 172.467 214.168C172.204 214.212 171.897 214.3 171.634 214.431C171.416 214.475 171.197 214.693 170.978 214.955ZM175.62 213.469L175.488 212.463L175.795 212.594L174.7 212.769L173.737 212.026L176.233 211.764L176.539 214.3L175.62 213.469Z" fill="#2B713A"/>
<path d="M177.81 215.699L178.948 216.486L174.963 222.345L173.825 221.558L177.81 215.699Z" fill="#2B713A"/>
<path d="M180.568 217.579L184.772 219.852L184.115 221.033L182.583 220.202L179.868 225.23L178.641 224.575L181.357 219.546L179.911 218.759L180.568 217.579Z" fill="#2B713A"/>
<path d="M186.699 220.64C187.093 220.814 187.443 221.033 187.706 221.252C187.969 221.47 188.188 221.733 188.319 222.039C188.451 222.301 188.538 222.607 188.494 222.957C188.494 223.263 188.407 223.613 188.276 223.919C188.144 224.181 188.013 224.443 187.794 224.662C187.575 224.881 187.356 225.099 187.093 225.231C186.83 225.362 186.524 225.449 186.173 225.449C185.823 225.449 185.429 225.362 184.991 225.187L184.071 224.793L183.196 226.848L181.926 226.28L184.728 219.765L186.699 220.64ZM185.56 223.963C185.736 224.05 185.911 224.094 186.086 224.094C186.261 224.094 186.392 224.05 186.48 223.963C186.611 223.875 186.699 223.831 186.787 223.7C186.874 223.613 186.918 223.525 186.962 223.438C187.006 223.35 187.006 223.263 187.049 223.176C187.093 223.044 187.093 222.913 187.049 222.782C187.049 222.651 186.962 222.52 186.874 222.389C186.787 222.257 186.611 222.126 186.392 222.039L185.473 221.645L184.641 223.613L185.56 223.963ZM186.436 225.274L186.962 228.466L185.473 227.81L184.903 224.618L186.436 225.274Z" fill="#2B713A"/>
<path d="M189.415 226.498C189.371 226.717 189.371 226.936 189.415 227.154C189.503 227.373 189.59 227.592 189.766 227.766C189.941 227.941 190.16 228.072 190.422 228.16C190.685 228.247 190.948 228.247 191.211 228.204C191.473 228.16 191.692 228.029 191.868 227.898C192.043 227.766 192.174 227.548 192.262 227.329L193.532 223.044L194.846 223.438L193.532 227.723C193.4 228.204 193.138 228.641 192.743 228.947C192.393 229.253 191.955 229.472 191.473 229.559C190.992 229.647 190.51 229.603 189.985 229.472C189.459 229.34 189.065 229.078 188.715 228.728C188.364 228.379 188.145 227.985 188.014 227.548C187.882 227.111 187.882 226.63 188.058 226.105L189.371 221.82L190.729 222.214L189.415 226.498ZM194.451 224.05C194.67 224.094 194.846 224.094 194.933 224.05C195.021 224.006 195.152 223.831 195.283 223.569L196.247 223.875C196.072 224.269 195.853 224.531 195.678 224.706C195.459 224.881 195.24 224.968 195.021 224.968C194.802 224.968 194.539 224.924 194.232 224.837L194.451 224.05Z" fill="#2B713A"/>
<path d="M194.364 227.023C194.451 226.542 194.627 226.105 194.889 225.711C195.152 225.318 195.459 224.968 195.853 224.706C196.247 224.444 196.641 224.225 197.123 224.094C197.604 223.963 198.042 223.963 198.568 224.05C199.05 224.137 199.488 224.312 199.882 224.575C200.276 224.837 200.626 225.143 200.889 225.537C201.152 225.93 201.371 226.367 201.458 226.805C201.59 227.286 201.59 227.723 201.502 228.204C201.414 228.685 201.239 229.122 200.977 229.559C200.714 229.953 200.407 230.302 200.013 230.565C199.619 230.827 199.181 231.046 198.743 231.133C198.261 231.264 197.823 231.264 197.298 231.177C196.816 231.089 196.378 230.915 195.94 230.652C195.546 230.39 195.196 230.084 194.933 229.69C194.67 229.297 194.451 228.903 194.364 228.422C194.276 228.029 194.276 227.548 194.364 227.023ZM195.765 227.286C195.721 227.592 195.721 227.898 195.765 228.16C195.809 228.466 195.94 228.728 196.116 228.947C196.291 229.166 196.466 229.384 196.729 229.559C196.991 229.734 197.254 229.821 197.561 229.865C197.867 229.909 198.13 229.909 198.437 229.821C198.699 229.734 198.962 229.647 199.181 229.472C199.4 229.297 199.575 229.078 199.75 228.816C199.926 228.553 200.013 228.291 200.057 227.985C200.101 227.679 200.101 227.373 200.057 227.067C200.013 226.761 199.882 226.498 199.707 226.28C199.531 226.061 199.356 225.843 199.093 225.668C198.874 225.493 198.568 225.405 198.261 225.362C197.955 225.318 197.648 225.318 197.386 225.405C197.123 225.493 196.86 225.58 196.641 225.755C196.422 225.93 196.203 226.149 196.072 226.411C195.94 226.673 195.809 226.979 195.765 227.286ZM197.386 222.214L198.874 222.476L199.269 223.875L198.48 223.744L197.386 222.214ZM199.181 224.225C199.4 224.269 199.575 224.225 199.663 224.137C199.75 224.05 199.838 223.875 199.969 223.613L200.933 223.788C200.801 224.181 200.626 224.487 200.451 224.662C200.276 224.837 200.057 224.968 199.838 225.012C199.619 225.056 199.356 225.056 199.05 225.012L199.181 224.225Z" fill="#2B713A"/>
<path d="M208.027 232.27L202.816 227.242L203.21 227.504L203.079 231.833L201.677 231.789L201.94 224.443H201.984L207.064 229.472L206.757 229.34L206.889 224.924L208.29 224.968L208.027 232.27Z" fill="#2B713A"/>
<path d="M214.99 230.74C214.903 230.827 214.771 230.958 214.64 231.046C214.465 231.133 214.29 231.264 214.027 231.352C213.808 231.439 213.589 231.527 213.326 231.614C213.107 231.702 212.844 231.745 212.625 231.745C212.056 231.789 211.531 231.745 211.049 231.614C210.567 231.483 210.173 231.264 209.823 231.002C209.472 230.74 209.21 230.39 208.991 229.996C208.772 229.603 208.64 229.166 208.597 228.641C208.553 227.985 208.597 227.417 208.728 226.936C208.903 226.455 209.122 226.017 209.429 225.668C209.735 225.318 210.085 225.056 210.523 224.881C210.961 224.706 211.399 224.575 211.881 224.531C212.319 224.487 212.757 224.487 213.151 224.575C213.545 224.662 213.852 224.75 214.158 224.881L213.808 226.192C213.676 226.149 213.545 226.105 213.326 226.061C213.107 226.018 212.932 225.974 212.713 225.974C212.494 225.93 212.319 225.93 212.188 225.974C211.793 226.017 211.487 226.105 211.18 226.192C210.874 226.324 210.655 226.498 210.48 226.673C210.304 226.892 210.173 227.154 210.085 227.417C209.998 227.723 209.998 228.029 209.998 228.422C210.042 228.772 210.129 229.034 210.261 229.297C210.392 229.559 210.567 229.778 210.786 229.909C211.005 230.084 211.268 230.215 211.574 230.259C211.881 230.346 212.188 230.346 212.538 230.302C212.757 230.302 212.932 230.259 213.063 230.215C213.195 230.171 213.37 230.127 213.458 230.04L213.37 229.166L212.144 229.253L212.012 227.898L214.64 227.679L214.99 230.74Z" fill="#2B713A"/>
<path d="M217.486 223.787L220.683 228.247L219.851 228.291L220.508 223.044L222.128 222.651L220.683 230.608L215.822 224.137L217.486 223.787Z" fill="#2B713A"/>
<path d="M221.996 222.607L223.31 222.17L225.456 228.903L224.142 229.34L221.996 222.607Z" fill="#2B713A"/>
<path d="M223.793 222.082L228.303 220.29L228.785 221.558L225.588 222.826L226.158 224.225L229.004 223.088L229.486 224.356L226.639 225.493L227.209 226.936L230.537 225.624L231.019 226.892L226.377 228.728L223.793 222.082ZM226.333 220.465L225.369 220.071L225.632 219.852L225.238 220.902L224.099 221.339L225.107 219.022L227.471 219.984L226.333 220.465ZM228.347 229.122C228.26 228.947 228.303 228.772 228.391 228.597C228.479 228.422 228.61 228.291 228.785 228.247C228.96 228.16 229.135 228.16 229.311 228.247C229.486 228.291 229.617 228.422 229.705 228.641C229.792 228.816 229.749 228.991 229.661 229.165C229.573 229.34 229.442 229.472 229.267 229.515C229.092 229.559 228.917 229.603 228.741 229.515C228.566 229.428 228.435 229.297 228.347 229.122Z" fill="#2B713A"/>
<path d="M228.039 220.421L232.287 218.279L232.9 219.503L231.368 220.29L233.951 225.405L232.725 226.018L230.141 220.902L228.652 221.645L228.039 220.421Z" fill="#2B713A"/>
<path d="M243.323 219.809L236.141 218.934L236.623 218.89L239.119 222.432L237.98 223.263L233.732 217.229L233.776 217.185L240.871 218.103L240.52 218.191L237.937 214.606L239.075 213.819L243.323 219.809Z" fill="#2B713A"/>
<path d="M243.499 219.284L240.959 211.676L241.003 211.633L248.316 214.999L247.09 216.092L242.097 213.6L242.404 212.42L244.506 218.41L243.499 219.284ZM243.411 215.917L244.988 214.518L246.126 215.087L243.849 217.098L243.411 215.917Z" fill="#2B713A"/>
<path d="M248.623 214.693L243.061 209.84L249.849 210.539L249.367 210.889L247.834 204.375L253.396 209.228L252.476 210.277L249.279 207.523L249.892 207.916L250.9 211.939L246.696 211.545L246.345 210.933L249.498 213.644L248.623 214.693Z" fill="#2B713A"/>
<defs>
<linearGradient id="paint0_linear_253_518" x1="370.272" y1="86.4002" x2="370.272" y2="145.433" gradientUnits="userSpaceOnUse">
<stop stop-color="#A2CE67"/>
<stop offset="1" stop-color="#D9D9D9" stop-opacity="0"/>
</linearGradient>
</defs>
</svg>
