<svg width="54" height="60" viewBox="0 0 54 60" fill="none" xmlns="http://www.w3.org/2000/svg">
<g clip-path="url(#clip0_115_2031)">
<path d="M35.4315 1.42248H28.915V1.25925C29.172 1.04937 29.4289 0.862822 29.7092 0.67627H32.7922C33.6797 0.886141 34.5673 1.14265 35.4315 1.42248Z" fill="#2B713A"/>
<path d="M36.506 1.58574H28.7283V1.18931L28.7983 1.14267C29.0553 0.95612 29.3122 0.746249 29.5925 0.559696L29.6392 0.536377H32.8156C33.7032 0.72293 34.6141 0.979439 35.5016 1.25927L36.506 1.58574ZM29.2188 1.23595H34.2637C33.7499 1.09603 33.2594 0.95612 32.7456 0.862844H29.7326C29.5691 1.00276 29.3823 1.11935 29.2188 1.23595Z" fill="white"/>
<path d="M40.0563 3.45114V3.5211H26.6731V3.45114C27.0702 2.96144 27.4906 2.49506 27.9577 2.07532H37.2068L40.0563 3.45114Z" fill="#2B713A"/>
<path d="M40.2431 3.68436H26.5095V3.38122L26.5562 3.33458C26.9533 2.84488 27.3971 2.37849 27.8642 1.93543L27.9109 1.88879H37.2535L40.2431 3.33458V3.68436ZM27 3.33458H39.4256L37.16 2.23858H28.0277C27.6773 2.58837 27.327 2.96147 27 3.33458Z" fill="white"/>
<path d="M43.5131 5.73645H25.2017C25.4819 5.20011 25.8089 4.66377 26.1593 4.17407H41.2942C41.9949 4.61713 42.6956 5.10684 43.3496 5.59654C43.3963 5.64317 43.443 5.68981 43.5131 5.73645Z" fill="#2B713A"/>
<path d="M44.0035 5.92303H24.8979L25.0381 5.66652C25.3184 5.13018 25.6454 4.59384 25.9957 4.08082L26.0424 4.01086H41.3175L41.3642 4.03418C42.0883 4.50056 42.789 4.96695 43.4429 5.47997C43.513 5.5266 43.5597 5.57324 43.6298 5.61988L44.0035 5.92303ZM25.4819 5.57324H42.9992C42.4386 5.1535 41.8547 4.73376 41.2241 4.36065H26.2293C25.949 4.73376 25.7154 5.1535 25.4819 5.57324Z" fill="white"/>
<path d="M24.8746 6.3894H44.3071L46.0121 7.95178H24.2673L24.8746 6.3894Z" fill="#2B713A"/>
<path d="M46.456 8.13836H24.0105L24.7345 6.2262H44.3539L46.456 8.13836ZM24.5243 7.78857H45.5685L44.2371 6.57598H24.9915L24.5243 7.78857Z" fill="white"/>
<path d="M47.9972 10.1671H23.7766C23.8467 9.63078 23.9635 9.11776 24.0802 8.60474H46.6425C47.1097 9.11776 47.5534 9.63078 47.9972 10.1671Z" fill="#2B713A"/>
<path d="M48.3476 10.3537H23.5898L23.6132 10.1438C23.6833 9.60749 23.8001 9.07115 23.9168 8.55813L23.9402 8.41821H46.7127L46.7594 8.46485C47.2265 8.95455 47.6936 9.49089 48.1141 10.0272L48.3476 10.3537ZM23.9869 10.0039H47.6236C47.2732 9.58417 46.9229 9.18774 46.5725 8.79132H24.2205C24.127 9.18774 24.057 9.58417 23.9869 10.0039Z" fill="white"/>
<path d="M49.5858 12.4058H23.6602C23.6602 12.2892 23.6602 12.1493 23.6602 12.0327C23.6602 11.6362 23.6835 11.2398 23.7069 10.8434H48.488L49.5858 12.4058Z" fill="#2B713A"/>
<path d="M49.9127 12.569H23.4966V12.4058C23.4966 12.2892 23.4966 12.1493 23.4966 12.0327C23.4966 11.6129 23.5199 11.1932 23.5433 10.8201L23.5667 10.6569H48.6047L49.9127 12.569ZM23.8236 12.2192H49.2353L48.3945 11.0066H23.8703C23.8469 11.3331 23.8236 11.6596 23.8236 12.0327C23.8236 12.0793 23.8236 12.1493 23.8236 12.2192Z" fill="white"/>
<path d="M23.6833 12.8488H49.8659L50.7534 14.4111H23.8702L23.6833 12.8488Z" fill="#2B713A"/>
<path d="M51.057 14.5744H23.7067L23.4731 12.6622H49.9827L51.057 14.5744ZM24.0337 14.2246H50.4498L49.7491 13.012H23.8702L24.0337 14.2246Z" fill="white"/>
<path d="M51.8279 16.6498H24.4542C24.2673 16.1368 24.1272 15.6237 23.9871 15.0874H51.1038L51.8279 16.6498Z" fill="#2B713A"/>
<path d="M52.0848 16.8364H24.3374L24.2907 16.7198C24.1038 16.2067 23.9403 15.6704 23.8236 15.1341L23.7769 14.9242H51.2206L52.0848 16.8364ZM24.5943 16.4866H51.5476L50.9871 15.274H24.2206C24.3374 15.6704 24.4542 16.0901 24.5943 16.4866Z" fill="white"/>
<path d="M52.6219 18.9117H25.5285C25.2249 18.3987 24.9679 17.8857 24.7344 17.3494H52.0847C52.2949 17.8624 52.4584 18.3754 52.6219 18.9117Z" fill="#2B713A"/>
<path d="M52.8789 19.075H25.4118L25.3651 18.9817C25.0614 18.4687 24.8045 17.9324 24.571 17.396L24.4775 17.1628H52.2249L52.2717 17.2794C52.4585 17.7691 52.6454 18.3055 52.8089 18.8651L52.8789 19.075ZM25.622 18.7252H52.3884C52.2483 18.3055 52.1082 17.9091 51.968 17.5126H24.9914C25.1782 17.9324 25.3884 18.3288 25.622 18.7252Z" fill="white"/>
<path d="M53.1825 20.9639H26.9767C26.5562 20.4742 26.1592 19.9378 25.8088 19.4015H52.7621L53.1825 20.9639Z" fill="#2B713A"/>
<path d="M53.3927 21.1271H26.9065L26.8598 21.0572C26.416 20.5675 26.019 20.0311 25.6686 19.4715L25.5051 19.1917H52.9255L53.3927 21.1271ZM27.07 20.7773H52.9489L52.6453 19.5648H26.1358C26.416 19.9845 26.743 20.4042 27.07 20.7773Z" fill="white"/>
<path d="M53.5796 23.2025H30.34C29.7093 22.876 29.0787 22.5962 28.4014 22.363C28.1211 22.1298 27.8642 21.8966 27.6306 21.6401H53.3227L53.5796 23.2025Z" fill="#2B713A"/>
<path d="M53.7897 23.3658H30.2932L30.2465 23.3425C29.6392 23.016 28.9852 22.7595 28.3312 22.5263H28.3079L28.2845 22.503C28.0042 22.2465 27.7473 22.0133 27.4904 21.7568L27.1868 21.4536H53.4627L53.7897 23.3658ZM30.3866 23.016H53.3693L53.1591 21.8034H28.051C28.1911 21.9433 28.3312 22.0599 28.4947 22.1998C29.1253 22.433 29.7793 22.7128 30.3866 23.016Z" fill="white"/>
<path d="M53.7899 25.2079H33.3998C33.3297 25.1612 33.2596 25.0913 33.1896 25.0447C32.5589 24.5316 31.8816 24.0653 31.1809 23.6455H53.6498C53.6965 24.1585 53.7432 24.6949 53.7899 25.2079Z" fill="#2B713A"/>
<path d="M53.9767 25.3945H33.3296L33.2829 25.3478C33.2128 25.3012 33.1428 25.2312 33.0727 25.1846C32.4421 24.6716 31.7647 24.2052 31.0874 23.8088L30.5269 23.4823H53.7898L53.8132 23.6455C53.8833 24.1586 53.93 24.6949 53.9533 25.2079L53.9767 25.3945ZM33.4464 25.0447H53.5796C53.5563 24.6483 53.5096 24.2285 53.4628 23.8321H31.7647C32.2786 24.1586 32.7924 24.5317 33.2596 24.9048C33.353 24.9514 33.3997 24.998 33.4464 25.0447Z" fill="white"/>
<path d="M53.8366 26.8636C53.8366 27.0268 53.8366 27.2134 53.8366 27.3766H35.5252C35.0814 26.8169 34.5909 26.3039 34.0537 25.8142H53.8132C53.8132 26.164 53.8366 26.5138 53.8366 26.8636Z" fill="#2B713A"/>
<path d="M54.0001 27.5399H35.4551L35.4084 27.4699C34.9646 26.9102 34.4741 26.3972 33.9603 25.9308L33.6333 25.6277H54.0001V25.7909C54.0234 26.1407 54.0234 26.4905 54.0234 26.8403C54.0234 27.0035 54.0234 27.1901 54.0234 27.3533L54.0001 27.5399ZM35.6186 27.1901H53.6731C53.6731 27.0735 53.6731 26.9569 53.6731 26.8403C53.6731 26.5604 53.6731 26.2573 53.6497 25.9775H34.4975C34.8945 26.3739 35.2449 26.7703 35.6186 27.1901Z" fill="white"/>
<path d="M53.7899 28.1228L53.6731 29.6852H37.1135C36.8098 29.1488 36.4828 28.6358 36.1091 28.1228H53.7899Z" fill="#2B713A"/>
<path d="M53.8366 29.8718H36.9966L36.9499 29.7785C36.6463 29.2421 36.3193 28.7291 35.9456 28.2394L35.7354 27.9596H53.9533L53.8366 29.8718ZM37.2068 29.522H53.5096L53.603 28.3094H36.436C36.7163 28.6825 36.9732 29.1022 37.2068 29.522Z" fill="white"/>
<path d="M53.6263 30.2216C53.5562 30.7579 53.4861 31.2709 53.3693 31.7839H38.0942C37.9074 31.3176 37.7205 30.8745 37.5103 30.4314C37.4636 30.3615 37.4403 30.2915 37.3936 30.2216H53.6263Z" fill="#2B713A"/>
<path d="M53.5328 31.9705H37.9775L37.9308 31.8539C37.7673 31.4109 37.5571 30.9678 37.3468 30.5247C37.3235 30.4548 37.2768 30.3848 37.2534 30.3149L37.1133 30.0583H53.8131L53.7898 30.2449C53.7197 30.7812 53.6496 31.2943 53.5328 31.8073V31.9705ZM38.211 31.6207H53.2292C53.2993 31.2243 53.3693 30.8046 53.416 30.4081H37.6738C37.884 30.8046 38.0475 31.201 38.211 31.6207Z" fill="white"/>
<path d="M53.2759 32.3202C53.1591 32.8565 53.0423 33.3695 52.9022 33.8826H38.7482C38.6314 33.3462 38.4679 32.8332 38.3044 32.3202H53.2759Z" fill="#2B713A"/>
<path d="M53.0191 34.0692H38.5848L38.5615 33.9292C38.4447 33.3929 38.2812 32.8799 38.1177 32.3902L38.0476 32.157H53.4862L53.4395 32.3669C53.3227 32.9265 53.2059 33.4395 53.0658 33.9292L53.0191 34.0692ZM38.8884 33.7194H52.7621C52.8789 33.3229 52.9723 32.9265 53.0658 32.5068H38.5381C38.6549 32.9032 38.7717 33.2996 38.8884 33.7194Z" fill="white"/>
<path d="M52.6687 34.6754C52.5052 35.2118 52.3184 35.7248 52.1315 36.2378H39.0986C39.0519 35.7015 38.9819 35.1884 38.8884 34.6754H52.6687Z" fill="#2B713A"/>
<path d="M52.2482 36.4244H38.9351L38.9117 36.2611C38.865 35.7481 38.7949 35.2118 38.7015 34.7221L38.6548 34.5122H52.8788L52.8088 34.7454C52.6453 35.2817 52.4584 35.8181 52.2716 36.3311L52.2482 36.4244ZM39.2621 36.0746H52.0147C52.1548 35.6782 52.2949 35.2817 52.4351 34.862H39.1219C39.1686 35.2584 39.2387 35.6548 39.2621 36.0746Z" fill="white"/>
<path d="M51.898 36.8441C51.6878 37.3805 51.4542 37.8935 51.1973 38.4065H39.1221C39.1454 38.1267 39.1454 37.8468 39.1454 37.5437C39.1454 37.3105 39.1454 37.0773 39.1221 36.8441H51.898Z" fill="#2B713A"/>
<path d="M51.3374 38.5698H38.9585V38.3832C38.9819 38.1034 38.9819 37.8469 38.9819 37.5437C38.9819 37.2872 38.9819 37.054 38.9585 36.8441V36.6576H52.1549L52.0614 36.8908C51.8512 37.4271 51.6177 37.9635 51.3607 38.4765L51.3374 38.5698ZM39.3088 38.22H51.1038C51.2907 37.8235 51.4775 37.4271 51.641 37.0074H39.3322C39.3322 37.1706 39.3322 37.3572 39.3322 37.5437C39.3322 37.7769 39.3322 38.0101 39.3088 38.22Z" fill="white"/>
<path d="M50.987 38.8962C50.7301 39.4326 50.4265 39.9456 50.1229 40.4586H38.8884C38.9819 39.9456 39.0519 39.4326 39.0986 38.8962H50.987Z" fill="#2B713A"/>
<path d="M50.2163 40.6219H38.6782L38.7249 40.412C38.8184 39.899 38.8884 39.3627 38.9351 38.8729L38.9585 38.7097H51.2673L51.1505 38.9662C50.8703 39.5026 50.59 40.0389 50.2864 40.5286L50.2163 40.6219ZM39.0986 40.2721H50.0061C50.2396 39.8757 50.4499 39.4792 50.6834 39.0595H39.2621C39.2388 39.4559 39.1687 39.8757 39.0986 40.2721Z" fill="white"/>
<path d="M49.6325 41.2281C49.2821 41.7645 48.9318 42.2775 48.5581 42.7905H38.2812C38.4681 42.2775 38.6082 41.7645 38.725 41.2281H49.6325Z" fill="#2B713A"/>
<path d="M48.6514 42.9771H38.0476L38.1177 42.7439C38.3045 42.2309 38.4447 41.7179 38.5615 41.2049L38.5848 41.0649H49.936L49.7725 41.3448C49.4455 41.8811 49.0718 42.3941 48.6981 42.9071L48.6514 42.9771ZM38.5147 42.6273H48.4646C48.7682 42.2309 49.0485 41.8345 49.3054 41.4147H38.8651C38.7717 41.8112 38.6549 42.2309 38.5147 42.6273Z" fill="white"/>
<path d="M48.1608 43.3501C47.7404 43.8864 47.2966 44.3995 46.8295 44.9125H37.3701C37.627 44.3995 37.8606 43.8864 38.0708 43.3501H48.1608Z" fill="#2B713A"/>
<path d="M46.8995 45.0757H37.0898L37.23 44.8192C37.4869 44.3295 37.7205 43.8165 37.9307 43.2802L37.9774 43.1636H48.5111L48.3009 43.4434C47.8805 43.9797 47.4367 44.5161 46.9696 45.0058L46.8995 45.0757ZM37.6738 44.726H46.7594C47.1097 44.3295 47.4601 43.9331 47.8104 43.5134H38.2343C38.0475 43.9331 37.8606 44.3528 37.6738 44.726Z" fill="white"/>
<path d="M46.3158 45.4489C45.802 45.9852 45.2414 46.5215 44.6808 47.0112H36.0857C36.4594 46.5215 36.7864 45.9852 37.09 45.4489H46.3158Z" fill="#2B713A"/>
<path d="M44.7509 47.1745H35.7354L35.9456 46.8947C36.3193 46.3816 36.6463 45.8686 36.9499 45.3556L36.9966 45.2623H46.7362L46.4559 45.5655C45.9421 46.1018 45.3815 46.6382 44.7976 47.1512L44.7509 47.1745ZM36.4127 46.8247H44.6108C45.0546 46.4283 45.4983 46.0319 45.8954 45.6121H37.1834C36.9499 46.0319 36.693 46.4283 36.4127 46.8247Z" fill="white"/>
<path d="M43.7465 47.7808C43.0458 48.3404 42.3217 48.8534 41.5743 49.3431H34.0068C34.5207 48.8534 35.0345 48.3404 35.4783 47.7808H43.7465Z" fill="#2B713A"/>
<path d="M41.6211 49.5297H33.5398L33.8668 49.2266C34.3806 48.7369 34.8945 48.2238 35.3382 47.6875L35.3849 47.6176H44.237L43.84 47.9207C43.1393 48.4804 42.4152 49.0167 41.6678 49.4831L41.6211 49.5297ZM34.4507 49.1799H41.5277C42.1116 48.8068 42.6955 48.3871 43.2327 47.9673H35.5484C35.2215 48.3871 34.8478 48.7835 34.4507 49.1799Z" fill="white"/>
<path d="M40.6636 49.9028C39.6826 50.4858 38.655 51.0221 37.5806 51.4652H31.1108C31.905 50.9988 32.6524 50.4858 33.3531 49.9028H40.6636Z" fill="#2B713A"/>
<path d="M37.6273 51.6518H30.4802L31.0408 51.3253C31.8115 50.8823 32.5589 50.3692 33.2596 49.7863L33.3063 49.7396H41.3176L40.7804 50.0661C39.7761 50.6491 38.7484 51.1854 37.674 51.6285L37.6273 51.6518ZM31.7415 51.302H37.5339C38.3747 50.9522 39.1922 50.5325 39.9863 50.0894H33.3998C32.8859 50.5325 32.3254 50.9289 31.7415 51.302Z" fill="white"/>
<path d="M30.2466 41.6245C30.2466 47.2678 26.5563 52.0715 21.4646 53.7505C14.5044 52.2114 8.52517 48.014 4.69472 42.2775C1.84524 37.9868 0.163574 32.8099 0.163574 27.2833C0.163574 12.3124 12.3089 0.186523 27.3037 0.186523C20.0165 1.91214 14.5978 8.44148 14.5978 16.2301C14.5978 21.5934 17.167 26.3739 21.1376 29.382C22.4923 30.4081 24.0105 31.2475 25.6454 31.8072C28.4715 34.1624 30.2466 37.6836 30.2466 41.6245Z" fill="#2B713A"/>
<path d="M21.4645 53.937H21.4178C14.481 52.4213 8.50173 48.3171 4.5545 42.3941C1.56488 37.8935 0 32.67 0 27.2833C0 12.2425 12.2388 0 27.3036 0H28.7984L27.3503 0.349786C19.9464 2.09872 14.7846 8.62806 14.7846 16.2301C14.7846 21.3836 17.1436 26.1174 21.2543 29.2421C22.609 30.2682 24.1272 31.0843 25.7154 31.644L25.7621 31.6673C28.7284 34.1391 30.41 37.7536 30.41 41.6012C30.41 47.1978 26.8365 52.1415 21.4879 53.8904L21.4645 53.937ZM25.9023 0.396424C11.7016 1.11932 0.350346 12.8955 0.350346 27.2833C0.350346 32.6001 1.91522 37.7536 4.85813 42.1842C8.73529 48.014 14.6445 52.0715 21.4645 53.5873C26.6263 51.8616 30.083 47.0812 30.083 41.6479C30.083 37.9168 28.4481 34.3956 25.5753 31.9938C23.9403 31.4108 22.4221 30.5946 21.0441 29.5453C16.84 26.3506 14.4343 21.5235 14.4343 16.2534C14.4343 8.95453 19.0822 2.61174 25.9023 0.396424Z" fill="white"/>
<path d="M36.1557 52.0482C33.7267 52.9343 31.1341 53.4707 28.4248 53.6106H25.2483V53.494C26.9533 53.2608 28.5649 52.7711 30.0597 52.0482H36.1557Z" fill="#2B713A"/>
<path d="M25.2484 53.7739H25.0615V53.3308L25.2017 53.3075C26.86 53.0743 28.4716 52.6079 29.9664 51.8617L30.0131 51.8384H37.1601L36.2259 52.1882C33.7267 53.0976 31.1108 53.6339 28.4482 53.7505L25.2484 53.7739ZM26.5797 53.4241H28.4248C30.6904 53.3075 32.9326 52.8877 35.1048 52.2115H30.1065C28.962 52.7478 27.7942 53.1676 26.5797 53.4241Z" fill="white"/>
<path d="M27.7241 20.6841C29.1301 20.6841 30.2699 19.1493 30.2699 17.2562C30.2699 15.363 29.1301 13.8282 27.7241 13.8282C26.318 13.8282 25.1782 15.363 25.1782 17.2562C25.1782 19.1493 26.318 20.6841 27.7241 20.6841Z" fill="#2B713A"/>
<path d="M27.7242 20.8706C26.2293 20.8706 24.9915 19.2616 24.9915 17.2562C24.9915 15.2507 26.206 13.6417 27.7242 13.6417C29.2423 13.6417 30.4569 15.2507 30.4569 17.2562C30.4569 19.2616 29.2423 20.8706 27.7242 20.8706ZM27.7242 13.9915C26.4162 13.9915 25.3418 15.4606 25.3418 17.2562C25.3418 19.0517 26.4162 20.5208 27.7242 20.5208C29.0321 20.5208 30.1065 19.0517 30.1065 17.2562C30.1065 15.4606 29.0555 13.9915 27.7242 13.9915Z" fill="white"/>
<path d="M37.9074 13.8749C37.16 13.9682 34.5674 14.3879 32.442 16.6732C30.6669 18.562 30.1764 20.7307 30.0129 21.9899C29.2655 22.0366 28.5181 22.0832 27.7474 22.0832C27.0467 22.0832 26.3693 22.0599 25.692 22.0132C25.4117 17.6759 22.1185 14.2247 17.9844 13.8282C17.9844 13.9215 17.9844 14.0381 17.9844 14.1314C17.9844 18.5154 21.0674 22.1765 25.1081 22.8527C25.8088 25.4178 26.1825 28.1228 26.1825 30.9211C26.1825 34.7221 25.4818 38.3832 24.2205 41.7412H31.0406C30.1297 38.9196 29.1254 34.6755 29.429 29.4754C29.5692 26.9336 29.9896 24.6949 30.4801 22.8294C31.7413 22.6195 34.8711 21.8267 36.7162 18.8185C37.9074 16.7898 37.9307 14.761 37.9074 13.8749Z" fill="#2B713A"/>
<path d="M31.2509 41.9045H23.9403L24.0338 41.6713C25.3417 38.2434 25.9957 34.6056 25.9957 30.9212C25.9957 28.2395 25.6454 25.5811 24.968 23.016C20.8106 22.2698 17.7976 18.5387 17.7976 14.1547C17.7976 14.0615 17.7976 13.9449 17.7976 13.8516V13.665L17.9845 13.6884C22.1886 14.0848 25.4819 17.5127 25.8322 21.8734C26.4628 21.92 27.1168 21.9433 27.7241 21.9433C28.4014 21.9433 29.1021 21.92 29.8262 21.8734C30.013 20.4276 30.5969 18.3988 32.2786 16.6032C34.2639 14.4812 36.6229 13.8982 37.8608 13.7583L38.0476 13.735V13.9215C38.0943 15.1808 37.9308 17.0929 36.7864 18.9352C34.9879 21.8967 31.9049 22.7595 30.5502 23.016C29.9896 25.1614 29.6627 27.3533 29.5225 29.522C29.289 33.6262 29.8495 37.7303 31.1341 41.7179L31.2509 41.9045ZM24.4542 41.5547H30.7838C29.5225 37.6137 29.0087 33.5329 29.2189 29.4521C29.3357 27.2134 29.7094 24.9515 30.2699 22.7595L30.2933 22.6429L30.4101 22.6196C31.648 22.4097 34.731 21.6168 36.5061 18.702C37.5338 16.9997 37.744 15.2741 37.7206 14.0615C36.4827 14.248 34.3573 14.831 32.5589 16.7898C30.9005 18.5854 30.34 20.6141 30.1765 22.0133L30.1531 22.1532H30.013C29.2189 22.1998 28.4715 22.2465 27.7241 22.2465C27.0467 22.2465 26.3461 22.2231 25.6454 22.1765H25.4819V22.0133C25.2016 17.8158 22.1185 14.4812 18.1246 14.0148C18.1246 14.0615 18.1246 14.0848 18.1246 14.1314C18.1246 18.3988 21.0675 21.99 25.1082 22.6662L25.2249 22.6895L25.2483 22.8061C25.9723 25.4412 26.3227 28.1695 26.3227 30.9212C26.346 34.5589 25.6921 38.1501 24.4542 41.5547Z" fill="white"/>
<path d="M2.61523 48.4745L5.48807 45.7928L4.76402 49.3607L4.60053 49.0808L8.1507 48.6145L5.27786 51.2962L4.76402 50.7598L6.39897 49.2208L6.14205 49.5239L3.94655 49.8271L4.36696 47.6351L4.71731 47.4951L3.10572 49.0109L2.61523 48.4745Z" fill="#2B713A"/>
<path d="M6.79604 50.1535C6.95953 49.9436 7.14638 49.7804 7.37995 49.6638C7.61351 49.5472 7.84707 49.4773 8.08064 49.4306C8.3142 49.384 8.57112 49.4306 8.82804 49.4773C9.08496 49.5472 9.29517 49.6638 9.50538 49.827C9.71559 49.9903 9.87908 50.1768 9.99586 50.41C10.1126 50.6432 10.1827 50.8764 10.2061 51.1329C10.2294 51.3894 10.2061 51.6226 10.136 51.8791C10.0659 52.1123 9.94915 52.3455 9.78566 52.5554C9.62216 52.7652 9.41195 52.9285 9.20175 53.0451C8.99154 53.1617 8.73462 53.2316 8.4777 53.2549C8.22078 53.2783 7.98721 53.255 7.73029 53.185C7.49673 53.115 7.26316 52.9984 7.05296 52.8352C6.84275 52.672 6.67925 52.4621 6.56247 52.2522C6.44569 52.019 6.37562 51.7858 6.35226 51.5527C6.32891 51.2961 6.35226 51.063 6.42233 50.8064C6.51576 50.5733 6.63254 50.3634 6.79604 50.1535ZM7.4033 50.6432C7.28652 50.7831 7.21645 50.923 7.16974 51.063C7.12303 51.2029 7.09967 51.3661 7.12303 51.5293C7.14638 51.6926 7.16974 51.8325 7.26316 51.9724C7.33323 52.1123 7.42666 52.2289 7.5668 52.3455C7.68358 52.4388 7.82372 52.5087 7.96386 52.5554C8.10399 52.602 8.26749 52.602 8.40763 52.5787C8.54777 52.5554 8.71126 52.5087 8.82804 52.4388C8.96818 52.3688 9.08496 52.2522 9.20175 52.1356C9.31853 51.9957 9.3886 51.8558 9.43531 51.7159C9.48202 51.576 9.50538 51.4127 9.48202 51.2495C9.48202 51.0863 9.43531 50.9464 9.36524 50.8064C9.29517 50.6665 9.20175 50.5499 9.06161 50.4567C8.94482 50.3634 8.80469 50.2934 8.64119 50.2468C8.50105 50.2002 8.33756 50.2001 8.19742 50.2235C8.05728 50.2468 7.89379 50.2934 7.75365 50.3634C7.63687 50.3867 7.52008 50.5033 7.4033 50.6432ZM9.87908 49.8504L9.80901 49.314L9.97251 49.384L9.3886 49.4773L8.87476 49.0808L10.2061 48.9409L10.3696 50.2934L9.87908 49.8504Z" fill="#2B713A"/>
<path d="M11.0468 51.0397L11.6541 51.4594L9.52865 54.5842L8.92139 54.1644L11.0468 51.0397Z" fill="#2B713A"/>
<path d="M12.5184 52.0424L14.7606 53.255L14.4103 53.8846L13.5928 53.4415L12.1447 56.1232L11.4907 55.7734L12.9388 53.0917L12.1681 52.672L12.5184 52.0424Z" fill="#2B713A"/>
<path d="M15.7883 53.6748C15.9985 53.768 16.1853 53.8846 16.3255 54.0012C16.4656 54.1178 16.5824 54.2577 16.6525 54.421C16.7225 54.5609 16.7692 54.7241 16.7459 54.9107C16.7459 55.0739 16.6992 55.2604 16.6291 55.4237C16.559 55.5636 16.489 55.7035 16.3722 55.8201C16.2554 55.9367 16.1386 56.0533 15.9985 56.1233C15.8583 56.1932 15.6949 56.2398 15.508 56.2398C15.3211 56.2398 15.1109 56.1932 14.8774 56.0999L14.3869 55.8901L13.9198 56.9861L13.2424 56.6829L14.7372 53.2084L15.7883 53.6748ZM15.181 55.447C15.2744 55.4936 15.3679 55.517 15.4613 55.517C15.5547 55.517 15.6248 55.4936 15.6715 55.447C15.7416 55.4004 15.7883 55.377 15.835 55.3071C15.8817 55.2604 15.9051 55.2138 15.9284 55.1672C15.9518 55.1205 15.9518 55.0739 15.9751 55.0273C15.9985 54.9573 15.9985 54.8873 15.9751 54.8174C15.9751 54.7474 15.9284 54.6775 15.8817 54.6075C15.835 54.5376 15.7416 54.4676 15.6248 54.421L15.1343 54.2111L14.6905 55.2605L15.181 55.447ZM15.6481 56.1466L15.9284 57.8489L15.1343 57.4991L14.8307 55.7968L15.6481 56.1466Z" fill="#2B713A"/>
<path d="M17.2363 56.7995C17.213 56.9161 17.213 57.0327 17.2363 57.1493C17.283 57.2658 17.3297 57.3824 17.4232 57.4757C17.5166 57.569 17.6334 57.639 17.7735 57.6856C17.9137 57.7322 18.0538 57.7322 18.1939 57.7089C18.3341 57.6856 18.4509 57.6156 18.5443 57.5457C18.6377 57.4757 18.7078 57.3591 18.7545 57.2425L19.4318 54.9573L20.1325 55.1671L19.4318 57.4524C19.3617 57.7089 19.2216 57.9421 19.0114 58.1053C18.8246 58.2686 18.591 58.3852 18.3341 58.4318C18.0771 58.4784 17.8202 58.4551 17.5399 58.3852C17.2597 58.3152 17.0495 58.1753 16.8626 57.9887C16.6758 57.8022 16.559 57.5923 16.4889 57.3591C16.4188 57.1259 16.4188 56.8694 16.5123 56.5896L17.213 54.3043L17.937 54.5142L17.2363 56.7995ZM19.9223 55.4936C20.0391 55.5169 20.1325 55.5169 20.1792 55.4936C20.2259 55.4703 20.296 55.377 20.3661 55.2371L20.8799 55.4003C20.7865 55.6102 20.6697 55.7501 20.5763 55.8434C20.4595 55.9367 20.3427 55.9833 20.2259 55.9833C20.1092 55.9833 19.969 55.96 19.8055 55.9133L19.9223 55.4936Z" fill="#2B713A"/>
<path d="M19.8756 57.0793C19.9223 56.8228 20.0158 56.5896 20.1559 56.3797C20.296 56.1698 20.4595 55.9833 20.6697 55.8433C20.8799 55.7034 21.0901 55.5868 21.3471 55.5169C21.604 55.4469 21.8375 55.4469 22.1178 55.4936C22.3747 55.5402 22.6083 55.6335 22.8185 55.7734C23.0287 55.9133 23.2156 56.0765 23.3557 56.2864C23.4959 56.4963 23.6126 56.7295 23.6593 56.9627C23.7294 57.2192 23.7294 57.4524 23.6827 57.7089C23.636 57.9654 23.5426 58.1986 23.4024 58.4318C23.2623 58.6416 23.0988 58.8282 22.8886 58.9681C22.6784 59.108 22.4448 59.2246 22.2112 59.2713C21.9543 59.3412 21.7208 59.3412 21.4405 59.2946C21.1836 59.2479 20.95 59.1547 20.7164 59.0148C20.5062 58.8748 20.3194 58.7116 20.1792 58.5017C20.0391 58.2919 19.9223 58.082 19.8756 57.8255C19.8289 57.6156 19.8289 57.3591 19.8756 57.0793ZM20.623 57.2192C20.5997 57.3824 20.5997 57.5456 20.623 57.6856C20.6464 57.8488 20.7164 57.9887 20.8099 58.1053C20.9033 58.2219 20.9967 58.3385 21.1369 58.4318C21.277 58.525 21.4171 58.5717 21.5806 58.595C21.7441 58.6183 21.8843 58.6183 22.0478 58.5717C22.1879 58.525 22.328 58.4784 22.4448 58.3851C22.5616 58.2919 22.655 58.1753 22.7484 58.0353C22.8419 57.8954 22.8886 57.7555 22.9119 57.5923C22.9353 57.429 22.9353 57.2658 22.9119 57.1026C22.8886 56.9393 22.8185 56.7994 22.7251 56.6828C22.6317 56.5662 22.5382 56.4496 22.3981 56.3564C22.2813 56.2631 22.1178 56.2165 21.9543 56.1931C21.7908 56.1698 21.6273 56.1698 21.4872 56.2165C21.3471 56.2631 21.2069 56.3097 21.0901 56.403C20.9734 56.4963 20.8566 56.6129 20.7865 56.7528C20.7164 56.8927 20.6464 57.0559 20.623 57.2192ZM21.4872 54.5142L22.2813 54.6541L22.4915 55.4003L22.0711 55.3303L21.4872 54.5142ZM22.4448 55.5868C22.5616 55.6102 22.655 55.5868 22.7017 55.5402C22.7484 55.4936 22.7952 55.4003 22.8652 55.2604L23.3791 55.3536C23.309 55.5635 23.2156 55.7268 23.1221 55.82C23.0287 55.9133 22.9119 55.9833 22.7952 56.0066C22.6784 56.0299 22.5382 56.0299 22.3747 56.0066L22.4448 55.5868Z" fill="#2B713A"/>
<path d="M27.1628 59.8776L24.3834 57.1959L24.5936 57.3358L24.5235 59.6444L23.7761 59.6211L23.9163 55.7035H23.9396L26.649 58.3852L26.4855 58.3152L26.5555 55.96L27.3029 55.9833L27.1628 59.8776Z" fill="#2B713A"/>
<path d="M30.8766 59.0614C30.8298 59.108 30.7598 59.178 30.6897 59.2246C30.5963 59.2712 30.5029 59.3412 30.3627 59.3878C30.2459 59.4345 30.1291 59.4811 29.989 59.5278C29.8722 59.5744 29.7321 59.5977 29.6153 59.5977C29.3117 59.621 29.0314 59.5977 28.7745 59.5278C28.5176 59.4578 28.3074 59.3412 28.1205 59.2013C27.9337 59.0614 27.7935 58.8748 27.6767 58.6649C27.5599 58.4551 27.4899 58.2219 27.4665 57.9421C27.4432 57.5923 27.4665 57.2891 27.5366 57.0326C27.63 56.7761 27.7468 56.5429 27.9103 56.3564C28.0738 56.1698 28.2606 56.0299 28.4942 55.9366C28.7278 55.8433 28.9613 55.7734 29.2183 55.7501C29.4518 55.7267 29.6854 55.7267 29.8956 55.7734C30.1058 55.82 30.2693 55.8667 30.4328 55.9366L30.2459 56.6362C30.1759 56.6129 30.1058 56.5895 29.989 56.5662C29.8722 56.5429 29.7788 56.5196 29.662 56.5196C29.5452 56.4963 29.4518 56.4963 29.3817 56.5196C29.1715 56.5429 29.008 56.5895 28.8445 56.6362C28.6811 56.7061 28.5643 56.7994 28.4708 56.8927C28.3774 57.0093 28.3074 57.1492 28.2606 57.2891C28.2139 57.4524 28.2139 57.6156 28.2139 57.8255C28.2373 58.012 28.284 58.1519 28.3541 58.2918C28.4241 58.4318 28.5176 58.5483 28.6343 58.6183C28.7511 58.7116 28.8913 58.7815 29.0548 58.8049C29.2183 58.8515 29.3817 58.8515 29.5686 58.8282C29.6854 58.8282 29.7788 58.8049 29.8489 58.7815C29.9189 58.7582 30.0124 58.7349 30.0591 58.6883L30.0124 58.2219L29.3584 58.2685L29.2883 57.5456L30.6897 57.429L30.8766 59.0614Z" fill="#2B713A"/>
<path d="M32.2079 55.3537L33.9129 57.7323L33.4691 57.7556L33.8194 54.9573L34.6836 54.7474L33.9129 58.9915L31.3203 55.5403L32.2079 55.3537Z" fill="#2B713A"/>
<path d="M34.6135 54.724L35.3142 54.4908L36.4587 58.082L35.758 58.3152L34.6135 54.724Z" fill="#2B713A"/>
<path d="M35.571 54.4442L37.9768 53.4881L38.2337 54.1644L36.5287 54.8406L36.8323 55.5869L38.3505 54.9806L38.6074 55.6568L37.0892 56.2631L37.3928 57.0326L39.1679 56.3331L39.4248 57.0093L36.9491 57.9887L35.571 54.4442ZM36.9257 53.5814L36.4119 53.3715L36.552 53.255L36.3418 53.8146L35.7345 54.0478L36.2717 52.8119L37.533 53.3249L36.9257 53.5814ZM38.0001 58.1986C37.9534 58.1053 37.9768 58.012 38.0235 57.9188C38.0702 57.8255 38.1402 57.7555 38.2337 57.7322C38.3271 57.6856 38.4205 57.6856 38.5139 57.7322C38.6074 57.7555 38.6774 57.8255 38.7242 57.9421C38.7709 58.0354 38.7475 58.1286 38.7008 58.2219C38.6541 58.3152 38.584 58.3852 38.4906 58.4085C38.3972 58.4318 38.3037 58.4551 38.2103 58.4085C38.1169 58.3618 38.0468 58.2919 38.0001 58.1986Z" fill="#2B713A"/>
<path d="M37.8367 53.5582L40.1022 52.4155L40.4292 53.0685L39.6118 53.4882L40.9898 56.2165L40.3358 56.543L38.9578 53.8147L38.1637 54.2111L37.8367 53.5582Z" fill="#2B713A"/>
<path d="M45.9881 53.2316L42.1576 52.7652L42.4146 52.7419L43.7459 54.6307L43.1386 55.0738L40.873 51.8558L40.8964 51.8324L44.6801 52.3221L44.4933 52.3688L43.1153 50.4566L43.7225 50.0369L45.9881 53.2316Z" fill="#2B713A"/>
<path d="M46.0815 52.9518L44.7268 48.8943L44.7502 48.871L48.6507 50.6665L47.9967 51.2495L45.3341 49.9203L45.4976 49.2907L46.6187 52.4854L46.0815 52.9518ZM46.0348 51.1562L46.8756 50.41L47.4829 50.7132L46.2683 51.7859L46.0348 51.1562Z" fill="#2B713A"/>
<path d="M48.8142 50.5033L45.8479 47.9149L49.4681 48.288L49.2112 48.4745L48.3937 45L51.36 47.5884L50.8695 48.1481L49.1645 46.679L49.4915 46.8888L50.0287 49.0342L47.7865 48.8243L47.5996 48.4979L49.2813 49.9436L48.8142 50.5033Z" fill="#2B713A"/>
</g>
<defs>
<clipPath id="clip0_115_2031">
<rect width="54" height="60" fill="white"/>
</clipPath>
</defs>
</svg>
